<svg version="1.1" xmlns="http://www.w3.org/2000/svg" xmlns:xlink="http://www.w3.org/1999/xlink" width="78.36539" height="75.82929" viewBox="0,0,78.36539,75.82929"><g transform="translate(-200.8173,-142.08535)"><g data-paper-data="{&quot;isPaintingLayer&quot;:true}" fill-rule="nonzero" stroke-width="7.5" stroke-linejoin="miter" stroke-miterlimit="10" stroke-dasharray="" stroke-dashoffset="0" style="mix-blend-mode: normal"><g><path d="M227.5293,184.0082c-0.37706,-5.13825 -12.52347,-7.70029 -9.25655,-11.18358c2.93215,-3.12634 20.40248,-10.17645 25.01419,-10.51486c9.74997,-0.71547 18.23388,6.60843 18.94935,16.35839c0.71547,9.74997 -6.60843,18.23388 -16.35839,18.94935c-6.45314,0.47354 -19.16614,-0.27898 -22.62478,-5.22143c-1.37489,-1.96474 4.27954,-8.34217 4.27618,-8.38788z" fill="#9e7ede" stroke="#8672c7" stroke-linecap="butt"/><path d="M248.39802,187.87523l3.72735,0.37274" fill="none" stroke="#8672c7" stroke-linecap="round"/><path d="M228.59639,185.38177l-0.11822,-9.76744l16.84946,3.95088l0.86831,9.11386" fill="none" stroke="#7455b1" stroke-linecap="round"/><path d="M241.6189,196.99544l-14.12407,-2.15575l-0.446,-3.35898" fill="none" stroke="#7455b1" stroke-linecap="round"/><path d="M255.72126,187.98009l-0.59687,-9.13378l5.67962,-5.60411l0.93252,9.70768" data-paper-data="{&quot;index&quot;:null}" fill="none" stroke="#7455b1" stroke-linecap="round"/><path d="M240.69234,187.08781l-2.97666,0.21843" fill="none" stroke="#ffffff" stroke-linecap="round"/><path d="M262.08603,187.71253l-2.57977,0.18931" fill="none" stroke="#ffffff" stroke-linecap="round"/></g><path d="M200.8173,217.91465v-75.82929h78.36539v75.82929z" fill="none" stroke="none" stroke-linecap="butt"/></g></g></svg>